<svg width="467" height="363" viewBox="0 0 467 363" fill="none" xmlns="http://www.w3.org/2000/svg">
<path d="M94.2593 0H204.987C212.517 0 219.901 2.07344 226.33 5.99295C261.705 27.5597 246.418 82 204.987 82H119.802C83.9472 82 54.8816 111.066 54.8816 146.92V218.056C54.8816 253.647 83.7344 282.5 119.326 282.5H206.304C247.08 282.5 262.007 336.163 227.088 357.218C220.815 361.001 213.629 363 206.304 363H94.7414C42.9277 363 0.884497 321.072 0.74176 269.259L0.259667 94.2589C0.116372 42.2432 42.2434 0 94.2593 0Z" fill="black"/>
<path d="M179.96 145.424C189.859 144.741 198.605 144.4 206.2 144.4C227.277 144.4 237.816 151.44 237.816 165.52C237.816 170.811 236.28 175.376 233.208 179.216C230.136 182.971 225.229 185.531 218.488 186.896C224.973 187.664 230.093 189.627 233.848 192.784C237.603 195.941 239.48 201.445 239.48 209.296C239.48 225.765 228.941 234 207.864 234H179.96V145.424ZM190.584 232.72H207.864C215.459 232.72 220.835 230.757 223.992 226.832C227.235 222.821 228.856 216.72 228.856 208.528C228.856 200.336 227.235 194.875 223.992 192.144C220.749 189.413 215.928 187.963 209.528 187.792H190.584V232.72ZM206.2 145.68C201.251 145.68 196.045 145.979 190.584 146.576V186.512H209.528C221.56 186 227.576 179.088 227.576 165.776C227.576 159.291 225.784 154.341 222.2 150.928C218.616 147.429 213.283 145.68 206.2 145.68Z" fill="black"/>
</svg>
